<svg xmlns="http://www.w3.org/2000/svg" height="100" viewBox="0 0 102 100" width="102"><path d="m98.315807 24.6658575s-3.250354-15.4021776-17.29135-20.8123473c-6.60299-2.6015434-18.6547464-3.7478875-30.4977492-3.8535102-11.8430028.1056851-23.8945497 1.2519668-30.4977494 3.7478875-14.04057721 5.4103778-17.29135101 20.8123473-17.29135101 20.8123473-2.0959212 8.7395209-2.8286553 17.5843523-2.7263743 25.3889826-.1064309 7.8046302.5239803 16.7560208 2.7263743 25.3889825 0 0 3.2503546 15.4021781 17.29135101 20.8123481 6.6029901 2.495817 18.6547466 3.747888 30.4977494 3.849452 11.8430028-.105685 23.8945492-1.247908 30.4977492-3.849452 14.040576-5.410379 17.29135-20.8123481 17.29135-20.8123481 2.095921-8.7395209 2.828655-17.5843523 2.726374-25.3889825.102334-7.6989036-.528077-16.6498779-2.726374-25.2838802z"></path></svg>