<svg xmlns="http://www.w3.org/2000/svg" height="149" viewBox="0 0 159 149" width="159"><path d="m2.56834568 143.176455c-1.30009323 3.447792-5.1834291 6.029331-9.07532333 5.810615-3.67231605-.210234-7.13369865-3.229076-8.21430005-6.886974-.8611097-3.447792.4305548-7.10569 1.7306481-10.334766 5.40300727-13.135022 13.39772913-24.97583 21.18151759-36.8157763 8.21430011-12.268768 16.63953361-24.5366749 26.36451451-35.51984 18.8007365-20.8796382 43.0036158-36.5961987 69.5885735-45.4266462-5.622586-1.0763588-11.6670384 2.3714337-17.2896239.4288644-4.1028276-1.2949888-6.9141204-5.38179391-9.2949015-9.03969161-.4305549-.85772879-1.0806015-1.93408757-.4305549-2.58153891.2194918-.4288644.8611097-.64749439 1.3000933-.85772879 15.9894437-4.73425648 32.848123-4.95297259 49.707667-4.95297259 10.375503 0 22.042109.85772879 28.525718 8.82958639 1.730648 2.37143368 3.022226 5.38179391 1.941711 8.18204891-.430555 1.2949888-1.300093 2.3714337-2.380781 3.2290764-16.209022 18.2980994-32.197601 36.5961987-48.406623 54.8942981-1.080602 1.2949888-2.380782 2.800255-4.102828 3.0103602-3.241804.8577288-6.0530972-1.9340875-7.9947219-4.5241512-1.9417112-2.3714337-4.1028277-5.1630778-4.1028277-8.3921542 0-2.800255 1.9417112-5.3817939 3.672316-7.5345115 7.5642106-9.468513 14.9088426-18.7269207 22.4721876-28.2049056-17.720135 6.4581527-35.2297684 14.2113803-49.9281095 25.6130337-17.5092017 13.5638428-30.9073631 31.8623727-43.2240586 50.3692858-8.2058714 13.361918-16.42017145 26.48919-22.04210863 40.699278zm46.43165432-96.176455c-1.6015344.829261-2.999952 1.8698957-4.2031327 3.3333611-.3984337.4146305-.7968673 1.0406347-.7968673 1.6666389 2.1953649-1.0406347 3.7967393-2.9185641 4.99992-4.9998335zm1.60416-.5606154c1.0625067-.4411531 1.8645867-1.3320953 2.39584-2.4393846-1.8645867.2248946-3.4688 1.3320953-4 2.6555101.5312533.674706 1.3333333.2248947 1.60416-.2162362zm7.9269134-7.4393846c-1.4161016.6936808-2.8229755 1.6125923-3.5310734 3 1.6459981-.4594557 3.0621469-1.6125923 4-3z" fill="#090b0d" fill-rule="evenodd" transform="matrix(1 0 0 -1 0 146)"></path></svg>