<svg xmlns="http://www.w3.org/2000/svg" width="201" height="141" viewBox="0 0 201 141"><path fill="#090B0D" fill-rule="evenodd" d="M186.635084,189.636439 C171.570054,203.452019 149.662366,196.9072 133.243334,188.851995 C116.963918,180.866986 115.78451,156.349672 123.608663,141.222484 C136.2796,149.76948 151.075862,154.592976 166.327444,155.131584 C177.713738,154.86231 189.730544,148.832535 188.270709,135.672751 C182.011028,103.95571 137.868586,101.2282 115.31783,116.928166 C107.353164,103.908653 108.3227,85.292051 113.554428,71.3128148 C135.10067,86.8961863 180.47125,97.0940751 198.477774,71.207431 C206.64095,59.0544273 202.436638,45.6956246 193.935035,35.1593448 C177.573704,12.7500057 150.85451,14.9395066 128.082521,26.1091081 L128.09421,26.1091081 C135.579937,10.5374259 145.529715,-3.72295362 157.558479,-16.0983542 C155.935202,-11.1693547 154.416979,-6.20498739 153.097358,-1.17048415 C152.256525,0.901853691 152.571841,3.25527489 153.926501,5.03475014 C157.243193,7.49343523 161.470526,8.35991409 165.487987,7.39977075 C169.505448,6.45140666 172.903757,3.77038457 174.772274,0.0822520308 C179.081522,-16.3676284 185.014138,-32.3481373 192.476546,-47.6161968 C195.583067,-53.9853814 187.034528,-57.6384459 182.164724,-56.5261615 C162.241551,-51.9835092 142.318975,-47.4288678 122.396071,-42.8862155 C117.549616,-41.773961 110.822955,-38.975686 110.519179,-33.051595 C110.250591,-27.6775018 116.977372,-25.3243504 121.356577,-26.3194418 L139.703051,-30.5108149 C119.698231,-9.67054315 100.512001,17.5503028 101.023257,46.9264808 C83.2606866,69.4527131 83.4708574,107.306351 105.344165,127.220168 C99.2246971,137.417757 96.8542218,149.453868 98.664142,161.221124 C100.474272,172.98778 106.336721,183.735667 115.235645,191.62836 C137.879678,208.089936 180.726415,224.247586 204.783914,203.406712 C211.732405,197.025832 192.405064,184.34591 186.635981,189.637878 L186.635084,189.636439 Z M147.364959,124.675072 C153.784075,122.985436 166.656702,118.873219 167.001234,129.681803 C165.451016,148.056459 141.02639,138.825717 132.001234,132.303228 C136.583042,128.650751 141.819225,126.054197 147.36584,124.675136 L147.364959,124.675072 Z M156.3952,36.4121438 C160.707082,34.9477267 165.158133,33.9401977 169.678918,33.4130099 C174.431454,33.0146949 176.84244,36.9159983 179.009806,40.9810245 C183.33326,50.69312 179.392329,62.1156215 170.038266,67.0126074 C157.577696,74.5221389 142.358364,70.9372741 129.376427,66.8017383 C125.099263,65.8762356 121.981153,62.162378 121.760974,57.7458534 C131.173168,47.5886864 143.146793,40.2078178 156.39609,36.4121139 L156.3952,36.4121438 Z" transform="scale(-1 1) rotate(68 0 -140.063)"></path></svg>